<svg height="1024" algsvg:version="1.0" xmlns="http://www.w3.org/2000/svg" width="1024" version="1.0" xmlns:algsvg="http://dtd.allegorithmic.com/algsvg.dtd">
 <path d="M0.653893,0.299751 L0.682497,0.282545 L0.653893,0.265338 L0.682497,0.248132 L0.653893,0.230926 L0.682497,0.21372 L0.653893,0.196514 L0.682497,0.179307 L0.653893,0.162102 L0.682497,0.144895 L0.653893,0.127689 L0.682497,0.110483 L0.653893,0.0932765 L0.682497,0.0760705 L0.653893,0.0588639 L0.682497,0.0416577 L0.653893,0.0244517 L0.682497,0.00724554 L0.711101,0.00724554 L0.739705,0.00724506 L0.768309,0.00724554 L0.825517,0.00724554 L0.854121,0.00724506 L0.882725,0.00724506 L0.911329,0.00724554 L0.939933,0.00724506 L0.968537,0.00724554 L0.997141,0.0244513 L0.968537,0.0416577 L0.997141,0.0588639 L0.968537,0.0760705 L0.997141,0.093276 L0.968537,0.110482 L0.997141,0.127689 L0.968537,0.144895 L0.997141,0.162101 L0.968537,0.179307 L0.997141,0.196514 L0.968537,0.21372 L0.997141,0.230926 L0.968537,0.248132 L0.997141,0.265338 L0.968537,0.282544 L0.997141,0.299751 L0.968537,0.316957 L0.997141,0.334163 L0.968537,0.351369 L0.997141,0.368576 L0.968537,0.385782 L0.997141,0.402988 L0.968537,0.420194 L0.997141,0.4374 L0.968537,0.454607 L0.997141,0.471813 L0.968537,0.489019 L0.997141,0.506225 L0.968537,0.523432 L0.997141,0.540637 L0.968537,0.557844 L0.739705,0.557844 L0.711101,0.557844 L0.682497,0.557844 L0.653893,0.540637 L0.682497,0.523432 L0.653893,0.506225 L0.682497,0.489019 L0.653893,0.471812 L0.682497,0.454606 L0.653893,0.4374 L0.682497,0.420194 L0.653893,0.402988 L0.682497,0.385782 L0.653893,0.368576 L0.682497,0.351369 L0.653893,0.334163 L0.682497,0.316957 L0.653893,0.299751 Z" transform="matrix(1024,0,0,-1024,0,1024)" fill="rgb(255,0,0)"/>
 <path d="M0.0193267,0.673119 L0.0194873,0.674632 L0.0197333,0.675644 L0.0230281,0.67602 L0.0269194,0.676406 L0.0348555,0.675152 L0.0449023,0.674091 L0.0507723,0.673844 L0.0590969,0.673826 L0.0671708,0.672813 L0.072382,0.672828 L0.0776087,0.672911 L0.0856363,0.674072 L0.0939917,0.674027 L0.0998261,0.673949 L0.109727,0.674196 L0.117595,0.675519 L0.121464,0.676159 L0.124736,0.676676 L0.125141,0.675703 L0.125369,0.674217 L0.123661,0.658549 L0.117372,0.634472 L0.102322,0.581372 L0.0938415,0.537117 L0.0882031,0.4939 L0.0814698,0.422557 L0.0760077,0.366681 L0.0690961,0.422396 L0.0605001,0.493541 L0.0537788,0.536636 L0.0443442,0.580772 L0.028128,0.633516 L0.0215389,0.657625 L0.0193267,0.673119 Z" transform="matrix(1024,0,0,-1024,0,1024)" fill="rgb(255,56,0)"/>
 <path d="M0.0229625,0.159139 L0.0355947,0.170195 L0.0428652,0.17634 L0.0496415,0.182079 L0.0628451,0.192722 L0.0785141,0.206115 L0.104328,0.22754 L0.124251,0.242099 L0.127244,0.243502 L0.130548,0.244223 L0.144014,0.227884 L0.164148,0.212556 L0.189698,0.196787 L0.204837,0.18827 L0.227092,0.1779 L0.249796,0.170924 L0.264396,0.170387 L0.278933,0.171846 L0.301152,0.180244 L0.32271,0.192 L0.337283,0.201455 L0.36179,0.218804 L0.380918,0.23537 L0.393327,0.252527 L0.39667,0.252015 L0.399746,0.250804 L0.420547,0.237529 L0.44766,0.217774 L0.464142,0.205396 L0.47799,0.195605 L0.485115,0.190306 L0.492759,0.184632 L0.506063,0.174395 L0.4775,0.15081 L0.450974,0.124591 L0.427198,0.0934267 L0.401397,0.0670285 L0.372299,0.0451276 L0.339837,0.0274911 L0.304733,0.0148199 L0.26948,0.00963736 L0.233969,0.0125802 L0.198131,0.0230067 L0.164616,0.0385594 L0.134191,0.058583 L0.106775,0.0833037 L0.0810808,0.112908 L0.0529555,0.137403 L0.0229625,0.159139 Z" transform="matrix(1024,0,0,-1024,0,1024)" fill="rgb(255,113,0)"/>
 <path d="M0.0329865,0.721527 L0.0339961,0.728419 L0.0383221,0.733969 L0.0453086,0.738157 L0.0625396,0.741465 L0.0841417,0.740949 L0.0951479,0.737352 L0.106411,0.7244 L0.111488,0.70839 L0.109407,0.698372 L0.104006,0.689643 L0.0892637,0.681438 L0.0721324,0.679998 L0.0614961,0.685127 L0.0450814,0.699657 L0.0347921,0.713803 L0.0329865,0.721527 Z" transform="matrix(1024,0,0,-1024,0,1024)" fill="rgb(255,170,0)"/>
 <path d="M0.0892029,0.372447 L0.089447,0.369823 L0.0901746,0.366952 L0.101709,0.366495 L0.114892,0.366262 L0.14019,0.365352 L0.170294,0.360363 L0.188435,0.358836 L0.214928,0.35746 L0.241705,0.358682 L0.259619,0.358706 L0.27744,0.359728 L0.304185,0.359937 L0.330488,0.362404 L0.348876,0.364494 L0.379629,0.370044 L0.405076,0.372796 L0.418245,0.375652 L0.429624,0.378491 L0.429808,0.381403 L0.429764,0.384037 L0.418774,0.420865 L0.400629,0.456155 L0.398921,0.458456 L0.396996,0.460512 L0.389225,0.456318 L0.379088,0.452916 L0.357711,0.449969 L0.332093,0.448632 L0.316578,0.447439 L0.294424,0.445878 L0.271925,0.444221 L0.257056,0.44374 L0.242236,0.443326 L0.219738,0.443809 L0.197588,0.444143 L0.181874,0.444324 L0.155787,0.444384 L0.134045,0.445739 L0.123512,0.448304 L0.115332,0.451814 L0.1136,0.449629 L0.112028,0.447222 L0.096783,0.410306 L0.0892029,0.372447 Z" transform="matrix(1024,0,0,-1024,0,1024)" fill="rgb(255,227,0)"/>
 <path d="M0.120572,0.292391 L0.124907,0.319646 L0.140205,0.34185 L0.15673,0.348062 L0.189834,0.348931 L0.216896,0.343049 L0.228221,0.335504 L0.235643,0.325645 L0.238021,0.313523 L0.23607,0.300017 L0.222963,0.275776 L0.20098,0.251386 L0.185557,0.242907 L0.158768,0.245789 L0.135289,0.26029 L0.125667,0.275303 L0.120572,0.292391 Z" transform="matrix(1024,0,0,-1024,0,1024)" fill="rgb(227,255,0)"/>
 <path d="M0.123006,0.908574 L0.125226,0.918624 L0.130271,0.927594 L0.144682,0.936382 L0.162055,0.938136 L0.173215,0.932927 L0.189567,0.918562 L0.200392,0.904027 L0.202745,0.896093 L0.201845,0.889358 L0.198025,0.883738 L0.190982,0.879392 L0.173224,0.875775 L0.151459,0.87597 L0.139669,0.879527 L0.127889,0.892417 L0.123006,0.908574 Z" transform="matrix(1024,0,0,-1024,0,1024)" fill="rgb(170,255,0)"/>
 <path d="M0.137173,0.493548 L0.140586,0.478975 L0.148102,0.466032 L0.167667,0.453082 L0.1905,0.449599 L0.204234,0.456122 L0.224558,0.475949 L0.237257,0.496022 L0.239725,0.507359 L0.238381,0.517677 L0.232578,0.526285 L0.223289,0.533092 L0.20013,0.538958 L0.171316,0.539328 L0.156767,0.534611 L0.142521,0.516393 L0.137173,0.493548 Z" transform="matrix(1024,0,0,-1024,0,1024)" fill="rgb(113,255,0)"/>
 <path d="M0.142366,0.55017 L0.142617,0.547849 L0.143245,0.545884 L0.150935,0.546195 L0.159764,0.546712 L0.176969,0.547611 L0.197775,0.546103 L0.210096,0.545547 L0.22804,0.544918 L0.246046,0.546275 L0.258012,0.546217 L0.269935,0.546439 L0.287952,0.545259 L0.30587,0.545777 L0.318393,0.545963 L0.339758,0.54645 L0.357174,0.545903 L0.366051,0.547095 L0.373703,0.548295 L0.374019,0.550303 L0.37414,0.552642 L0.367304,0.589058 L0.354446,0.624717 L0.353235,0.626923 L0.35204,0.628473 L0.346615,0.626224 L0.339645,0.624783 L0.325023,0.624781 L0.307617,0.626039 L0.297018,0.626606 L0.282115,0.626695 L0.267165,0.626323 L0.257378,0.626192 L0.247611,0.626172 L0.232672,0.626379 L0.217784,0.62606 L0.20715,0.625263 L0.189533,0.62395 L0.174782,0.623616 L0.167684,0.624878 L0.162187,0.626944 L0.161052,0.625375 L0.15985,0.623152 L0.147951,0.586918 L0.142366,0.55017 Z" transform="matrix(1024,0,0,-1024,0,1024)" fill="rgb(56,255,0)"/>
 <path d="M0.18895,0.825356 L0.192373,0.844087 L0.202949,0.860173 L0.214786,0.865672 L0.239182,0.868676 L0.258829,0.866762 L0.266822,0.862498 L0.27208,0.856451 L0.273801,0.848588 L0.272462,0.839455 L0.263254,0.822058 L0.247583,0.803889 L0.236516,0.79725 L0.217304,0.797457 L0.199829,0.805012 L0.192616,0.814235 L0.18895,0.825356 Z" transform="matrix(1024,0,0,-1024,0,1024)" fill="rgb(0,255,0)"/>
 <path d="M0.193431,0.712537 L0.193765,0.710139 L0.194374,0.708584 L0.199894,0.70936 L0.206324,0.710389 L0.219136,0.712732 L0.23499,0.713489 L0.244254,0.713555 L0.257647,0.713566 L0.270816,0.715422 L0.279471,0.715473 L0.288103,0.715299 L0.301317,0.713271 L0.314716,0.712766 L0.3241,0.711939 L0.340276,0.70952 L0.35319,0.707046 L0.359656,0.707548 L0.365189,0.708089 L0.365576,0.70969 L0.36585,0.712121 L0.36156,0.749077 L0.35407,0.785827 L0.353227,0.788079 L0.352401,0.78941 L0.348195,0.788198 L0.342842,0.787813 L0.331595,0.789367 L0.318134,0.791995 L0.309867,0.79349 L0.29836,0.794345 L0.287091,0.794488 L0.279858,0.794448 L0.272628,0.794552 L0.261353,0.79451 L0.24984,0.793728 L0.241581,0.792265 L0.228006,0.789935 L0.216689,0.788474 L0.211285,0.78892 L0.207117,0.790138 L0.206295,0.78883 L0.205381,0.786587 L0.197644,0.749699 L0.193431,0.712537 Z" transform="matrix(1024,0,0,-1024,0,1024)" fill="rgb(0,255,56)"/>
 <path d="M0.194365,0.667561 L0.19797,0.655842 L0.205212,0.64595 L0.22299,0.637369 L0.242691,0.636431 L0.254147,0.64294 L0.27054,0.661263 L0.280325,0.67906 L0.281866,0.688562 L0.280226,0.696858 L0.274913,0.703387 L0.266743,0.708153 L0.246532,0.710859 L0.221432,0.708583 L0.209208,0.703301 L0.198109,0.686949 L0.194365,0.667561 Z" transform="matrix(1024,0,0,-1024,0,1024)" fill="rgb(0,255,113)"/>
 <path d="M0.209929,0.908046 L0.21003,0.872831 L0.210489,0.870734 L0.211133,0.869405 L0.215809,0.870482 L0.221308,0.871789 L0.232434,0.874508 L0.246475,0.875949 L0.254758,0.876341 L0.266719,0.87668 L0.278368,0.878514 L0.286016,0.878577 L0.293637,0.878342 L0.30529,0.876222 L0.317224,0.875298 L0.325554,0.87413 L0.339686,0.871044 L0.35081,0.868048 L0.356426,0.868016 L0.36122,0.868031 L0.361695,0.869407 L0.362141,0.871527 L0.362662,0.9067 L0.358109,0.94212 L0.35747,0.944313 L0.356763,0.945653 L0.352698,0.944802 L0.347559,0.944774 L0.336841,0.946943 L0.323907,0.950256 L0.315864,0.952094 L0.304648,0.95329 L0.293749,0.953659 L0.286779,0.953704 L0.279811,0.953798 L0.268886,0.953668 L0.257622,0.952687 L0.24955,0.950962 L0.236434,0.948054 L0.225614,0.946061 L0.220422,0.946179 L0.216397,0.947058 L0.215684,0.945747 L0.214965,0.943566 L0.209929,0.908046 Z" transform="matrix(1024,0,0,-1024,0,1024)" fill="rgb(0,255,170)"/>
 <path d="M0.246714,0.251989 L0.248927,0.281193 L0.26867,0.309966 L0.299145,0.338377 L0.319973,0.348227 L0.353707,0.344602 L0.382222,0.327065 L0.392572,0.309303 L0.397082,0.289247 L0.388134,0.256988 L0.365892,0.231367 L0.34393,0.224403 L0.302265,0.224468 L0.268216,0.232104 L0.246714,0.251989 Z" transform="matrix(1024,0,0,-1024,0,1024)" fill="rgb(0,255,227)"/>
 <path d="M0.259791,0.484782 L0.261437,0.474776 L0.266974,0.466281 L0.276641,0.459478 L0.300128,0.453199 L0.328385,0.452289 L0.343008,0.456994 L0.357366,0.474981 L0.362637,0.498051 L0.359185,0.512723 L0.351833,0.525882 L0.332376,0.539352 L0.309643,0.54294 L0.295676,0.536546 L0.275434,0.516808 L0.262336,0.496326 L0.259791,0.484782 Z" transform="matrix(1024,0,0,-1024,0,1024)" fill="rgb(0,227,255)"/>
 <path d="M0.279188,0.819715 L0.279329,0.827781 L0.283404,0.836626 L0.298333,0.851558 L0.319503,0.865203 L0.333142,0.869126 L0.352608,0.863723 L0.367477,0.850681 L0.371664,0.839231 L0.37246,0.827065 L0.36413,0.809127 L0.348507,0.796319 L0.334446,0.794397 L0.309568,0.798324 L0.289878,0.80595 L0.282576,0.812394 L0.279188,0.819715 Z" transform="matrix(1024,0,0,-1024,0,1024)" fill="rgb(0,170,255)"/>
 <path d="M0.281877,0.654753 L0.283329,0.664066 L0.292952,0.681311 L0.308408,0.698511 L0.319495,0.70477 L0.338126,0.703642 L0.354596,0.694431 L0.361224,0.684549 L0.364879,0.673226 L0.361912,0.65459 L0.35126,0.639263 L0.33948,0.634433 L0.316404,0.632948 L0.296904,0.636071 L0.288692,0.640697 L0.283765,0.646989 L0.281877,0.654753 Z" transform="matrix(1024,0,0,-1024,0,1024)" fill="rgb(0,113,255)"/>
 <path d="M0.479155,0.0931902 L0.485003,0.124997 L0.504255,0.15517 L0.531471,0.176361 L0.560736,0.185932 L0.590005,0.176369 L0.617228,0.155178 L0.636485,0.125005 L0.642337,0.0931945 L0.635105,0.0627959 L0.616308,0.0372055 L0.589765,0.0198174 L0.560735,0.0140028 L0.531713,0.019944 L0.505179,0.0372341 L0.486386,0.0628002 L0.479155,0.0931902 Z" transform="matrix(1024,0,0,-1024,0,1024)" fill="rgb(0,56,255)"/>
 <path d="M0.472707,0.306172 L0.472716,0.208276 L0.505611,0.208279 L0.536314,0.20828 L0.563863,0.208279 L0.590255,0.208276 L0.617857,0.208275 L0.648636,0.208276 L0.648627,0.306172 L0.617858,0.306171 L0.590263,0.306172 L0.563871,0.306176 L0.536315,0.306177 L0.505602,0.306176 L0.472707,0.306172 Z" transform="matrix(1024,0,0,-1024,0,1024)" fill="rgb(0,0,255)"/>
 <path d="M0.473024,0.478391 L0.47303,0.409302 L0.505234,0.409304 L0.535752,0.409306 L0.563651,0.409304 L0.590523,0.409301 L0.618427,0.409299 L0.64895,0.409301 L0.648945,0.478391 L0.618427,0.478389 L0.590528,0.478391 L0.563656,0.478394 L0.535752,0.478395 L0.505229,0.478394 L0.473024,0.478391 Z" transform="matrix(1024,0,0,-1024,0,1024)" fill="rgb(56,0,255)"/>
 <path d="M0.473275,0.571756 L0.473281,0.481479 L0.504965,0.481483 L0.53531,0.481485 L0.563467,0.481483 L0.590724,0.481479 L0.61887,0.481477 L0.649201,0.481479 L0.649196,0.571756 L0.618871,0.571754 L0.590729,0.571756 L0.563472,0.57176 L0.53531,0.571762 L0.504959,0.57176 L0.473275,0.571756 Z" transform="matrix(1024,0,0,-1024,0,1024)" fill="rgb(113,0,255)"/>
 <path d="M0.47339,0.40595 L0.473398,0.308191 L0.5027,0.308192 L0.532001,0.308191 L0.561306,0.308187 L0.590616,0.308187 L0.619925,0.308187 L0.649231,0.308191 L0.649222,0.40595 L0.619917,0.405947 L0.590616,0.405945 L0.561315,0.405947 L0.532009,0.40595 L0.5027,0.405951 L0.47339,0.40595 Z" transform="matrix(1024,0,0,-1024,0,1024)" fill="rgb(170,0,255)"/>
 <path d="M0.4734,0.683606 L0.473406,0.575368 L0.502726,0.575374 L0.532058,0.575376 L0.56139,0.575374 L0.590711,0.575368 L0.620018,0.575366 L0.649326,0.575368 L0.649321,0.683606 L0.620018,0.683603 L0.590716,0.683606 L0.561396,0.683611 L0.532058,0.683613 L0.502721,0.683611 L0.4734,0.683606 Z" transform="matrix(1024,0,0,-1024,0,1024)" fill="rgb(227,0,255)"/>
 <path d="M0.659517,0.614694 L0.684177,0.642094 L0.69791,0.661089 L0.721526,0.681424 L0.739456,0.712224 L0.758689,0.681585 L0.786953,0.663275 L0.798937,0.643003 L0.823876,0.615427 L0.800842,0.594937 L0.773274,0.58043 L0.742344,0.57658 L0.712181,0.583744 L0.684898,0.597625 L0.659517,0.614694 Z" transform="matrix(1024,0,0,-1024,0,1024)" fill="rgb(255,0,227)"/>
 <path d="M0.375948,0.873838 L0.400093,0.948149 L0.463306,0.994076 L0.541441,0.994076 L0.604654,0.948149 L0.628799,0.873839 L0.604654,0.799528 L0.541441,0.7536 L0.463306,0.7536 L0.400093,0.799527 L0.375948,0.873838 Z" transform="matrix(1024,0,0,-1024,0,1024)" fill="rgb(255,0,170)"/>
 <path d="M0.638191,0.778624 L0.638191,0.801741 L0.638191,0.824859 L0.638191,0.847976 L0.638191,0.871094 L0.638191,0.940446 L0.638191,0.963564 L0.638191,0.986624 L0.658853,0.986681 L0.985822,0.986681 L0.985822,0.940446 L0.985822,0.917328 L0.985822,0.894211 L0.985822,0.871093 L0.985822,0.847976 L0.985822,0.824859 L0.985822,0.801741 L0.985822,0.778624 L0.985822,0.755506 L0.658853,0.755506 L0.638191,0.755563 L0.638191,0.778624 Z" transform="matrix(1024,0,0,-1024,0,1024)" fill="rgb(255,0,113)"/>
 <path d="M0.638203,0.778612 L0.638203,0.755551 L0.658864,0.755494 L0.985834,0.755494 L0.985834,0.778612 L0.985834,0.801729 L0.985834,0.824847 L0.985834,0.847964 L0.985834,0.871082 L0.985834,0.894199 L0.985834,0.917317 L0.985834,0.940434 L0.985834,0.963552 L0.985834,0.986669 L0.658864,0.986669 L0.638203,0.986612 L0.638203,0.963552 L0.638203,0.940434 L0.638203,0.917316 L0.638203,0.871082 L0.638203,0.847964 L0.638203,0.824847 L0.638203,0.801729 L0.638203,0.778612 Z" transform="matrix(1024,0,0,-1024,0,1024)" fill="rgb(255,0,56)"/>
</svg>
