<?xml version="1.0" encoding="utf-8"?>
<!-- Generator: Adobe Illustrator 18.1.1, SVG Export Plug-In . SVG Version: 6.00 Build 0)  -->
<!DOCTYPE svg PUBLIC "-//W3C//DTD SVG 1.1//EN" "http://www.w3.org/Graphics/SVG/1.1/DTD/svg11.dtd">
<svg version="1.1" id="Layer_1" xmlns="http://www.w3.org/2000/svg" xmlns:xlink="http://www.w3.org/1999/xlink" x="0px" y="0px"
	 viewBox="0 0 512 512" enable-background="new 0 0 512 512" xml:space="preserve">
<g>
	<path fill="#FFFFFF" d="M62.1,101.2H45.9l-5.8-5.8V60.9l5.8-5.8h16.3l5.8,5.8v2.2H48.5v30.1h19.4v2.2L62.1,101.2z"/>
	<path fill="#FFFFFF" d="M96.2,101.2H79.1l-5.8-5.8V70.3l5.8-5.8h17.1l5.8,5.8v25.1L96.2,101.2z M93.6,72.6h-12v20.7h12V72.6z"/>
	<path fill="#FFFFFF" d="M117.6,101.2h-8.4V55.1l6.8-2.7l1.7-0.1V101.2z"/>
	<path fill="#FFFFFF" d="M147.7,101.2h-17.1l-5.8-5.8V70.3l5.8-5.8h17.1l5.8,5.8v25.1L147.7,101.2z M145.1,72.6h-12v20.7h12V72.6z"
		/>
	<path fill="#FFFFFF" d="M184,72.6h-15v28.7h-8.3l-0.1-36.6h1.9l6.5,4.2l4.2-4.2h6.7l4.2,4.2V72.6z"/>
	<path fill="#FFFFFF" d="M235.7,63.1h-12v38.1h-8.4V63.1l-12,0.1v-8.1h32.3V63.1z"/>
	<path fill="#FFFFFF" d="M259.7,101.2h-17.1l-5.8-5.8V70.3l5.8-5.8h17.1l5.8,5.8v10.9l-5.8,5.8h-14.5v6.6h20.3v1.9L259.7,101.2z
		 M257.1,72.6h-12v6.8h12V72.6z"/>
	<path fill="#FFFFFF" d="M293,101.2h-15l-5.8-5.8v-1.9h18.1v-6.9h-12.4l-5.8-5.8V70.3l5.8-5.8h15l5.8,5.8v1.9h-18.1v6.6H293l5.8,5.8
		v10.9L293,101.2z"/>
	<path fill="#FFFFFF" d="M315.7,72.6v20.7h7.8v8h-10.4l-5.8-5.8V72.6H303v-1.9l4.3-6.1v-9.1l6.6-3.2h1.8v12.3h7.9v8H315.7z"/>
	<path fill="#FFFFFF" d="M347,101.2v-9.4h9.1v9.4H347z"/>
	<path fill="#FFFFFF" d="M386.9,101.2h-17.1l-5.8-5.8V60.9l5.8-5.8h17.1l5.8,5.8v34.6L386.9,101.2z M384.3,63.1h-12v30.1h12V63.1z"
		/>
	<path fill="#FFFFFF" d="M410,101.2h-8.4V61.7h-4.3v-2.4l4.2-4.2h8.5V101.2z"/>
</g>
</svg>
